<svg width="127" height="139" viewBox="0 0 127 139" fill="none" xmlns="http://www.w3.org/2000/svg">
<path d="M63.5 0C71.9206 0 79.9964 3.66115 85.9506 10.178C91.9049 16.6949 95.25 25.5337 95.25 34.75C95.25 43.9663 91.9049 52.8051 85.9506 59.322C79.9964 65.8389 71.9206 69.5 63.5 69.5C55.0794 69.5 47.0036 65.8389 41.0494 59.322C35.0951 52.8051 31.75 43.9663 31.75 34.75C31.75 25.5337 35.0951 16.6949 41.0494 10.178C47.0036 3.66115 55.0794 0 63.5 0ZM63.5 86.875C98.5837 86.875 127 102.426 127 121.625V139H0V121.625C0 102.426 28.4163 86.875 63.5 86.875Z" fill="white"/>
</svg>
