<svg width="22" height="14" viewBox="0 0 22 14" fill="none" xmlns="http://www.w3.org/2000/svg">
<path d="M11 3.98284C11.7956 3.98284 12.5587 4.26258 13.1213 4.76053C13.6839 5.25848 14 5.93385 14 6.63806C14 7.34227 13.6839 8.01764 13.1213 8.51559C12.5587 9.01354 11.7956 9.29329 11 9.29329C10.2044 9.29329 9.44129 9.01354 8.87868 8.51559C8.31607 8.01764 8 7.34227 8 6.63806C8 5.93385 8.31607 5.25848 8.87868 4.76053C9.44129 4.26258 10.2044 3.98284 11 3.98284ZM11 0C16 0 20.27 2.75258 22 6.63806C20.27 10.5235 16 13.2761 11 13.2761C6 13.2761 1.73 10.5235 0 6.63806C1.73 2.75258 6 0 11 0ZM2.18 6.63806C2.98825 8.09871 4.24331 9.32935 5.80248 10.1901C7.36165 11.0508 9.1624 11.5071 11 11.5071C12.8376 11.5071 14.6383 11.0508 16.1975 10.1901C17.7567 9.32935 19.0117 8.09871 19.82 6.63806C19.0117 5.17742 17.7567 3.94677 16.1975 3.08603C14.6383 2.22529 12.8376 1.76898 11 1.76898C9.1624 1.76898 7.36165 2.22529 5.80248 3.08603C4.24331 3.94677 2.98825 5.17742 2.18 6.63806Z" fill="#7F8C8D"/>
</svg>
