<svg width="27" height="27" viewBox="0 0 27 27" fill="none" xmlns="http://www.w3.org/2000/svg">
<path d="M26.7287 6.2475L23.5224 3.5025C23.3045 3.34709 23.0676 3.22736 22.819 3.147C22.5715 3.05796 22.3137 3.00847 22.0536 3H12.825L13.9064 10.5H22.0536C22.275 10.5 22.5518 10.4445 22.8177 10.353C23.0837 10.2615 23.3402 10.1355 23.5211 9.999L26.7273 7.251C26.9096 7.1145 27 6.933 27 6.75C27 6.567 26.9095 6.3855 26.7287 6.2475ZM11.475 0H10.125C9.94598 0 9.77429 0.0790176 9.6477 0.21967C9.52112 0.360322 9.45 0.551088 9.45 0.75V6H4.9464C4.7223 6 4.4469 6.0555 4.18095 6.1485C3.91365 6.2385 3.6585 6.363 3.4776 6.5025L0.27135 9.2475C0.0891 9.384 0 9.567 0 9.75C0 9.9315 0.0891 10.113 0.27135 10.2525L3.4776 13.0005C3.6585 13.137 3.91365 13.263 4.18095 13.353C4.4469 13.4445 4.7223 13.5 4.9464 13.5H9.45V26.25C9.45 26.4489 9.52112 26.6397 9.6477 26.7803C9.77429 26.921 9.94598 27 10.125 27H11.475C11.654 27 11.8257 26.921 11.9523 26.7803C12.0789 26.6397 12.15 26.4489 12.15 26.25V0.75C12.15 0.551088 12.0789 0.360322 11.9523 0.21967C11.8257 0.0790176 11.654 0 11.475 0Z" fill="black"/>
</svg>
