<svg width="30" height="24" viewBox="0 0 30 24" fill="none" xmlns="http://www.w3.org/2000/svg">
<path d="M27.8571 0H2.14286C1.57454 0 1.02949 0.252856 0.627628 0.702944C0.225765 1.15303 0 1.76348 0 2.4V21.6C0 22.2365 0.225765 22.847 0.627628 23.2971C1.02949 23.7471 1.57454 24 2.14286 24H27.8571C28.4255 24 28.9705 23.7471 29.3724 23.2971C29.7742 22.847 30 22.2365 30 21.6V2.4C30 1.76348 29.7742 1.15303 29.3724 0.702944C28.9705 0.252856 28.4255 0 27.8571 0ZM25.5 2.4L15 10.536L4.5 2.4H25.5ZM2.14286 21.6V3.492L14.3893 12.984C14.5686 13.1234 14.7817 13.198 15 13.198C15.2183 13.198 15.4314 13.1234 15.6107 12.984L27.8571 3.492V21.6H2.14286Z" fill="black"/>
</svg>
