<svg width="52" height="55" viewBox="0 0 52 55" fill="none" xmlns="http://www.w3.org/2000/svg">
<g style="mix-blend-mode:darken">
<path fill-rule="evenodd" clip-rule="evenodd" d="M36.9139 40.33C35.034 38.4459 32.0257 38.4306 29.68 39.6882C24.4871 42.4722 18.1094 42.9651 12.5578 40.6255C4.07062 37.0484 -1.33573 26.9865 0.287522 17.6247C1.91222 8.25649 10.3623 0.678767 19.8109 0.462275C19.9848 0.459792 20.1587 0.458302 20.3326 0.459295C29.6188 0.550163 38.3733 7.93671 40.0939 17.4961C40.963 22.3277 40.0464 27.4514 37.6938 31.7207C36.4083 34.0535 36.4214 37.0666 38.3027 38.9521L51.7009 52.3802C52.0607 52.7714 51.9981 52.9015 51.9923 53.119C51.9725 53.8767 50.976 54.3743 50.358 53.8042L36.9139 40.33ZM20.0835 2.44546C11.7953 2.5264 4.01712 8.9864 2.29367 17.3968C1.02493 23.5882 3.02293 30.3888 7.41825 34.812C12.4648 39.8906 20.4534 41.5953 27.1174 38.7868C34.8253 35.5385 39.7283 26.3564 38.1994 17.8586C36.6831 9.43378 29.115 2.64408 20.5565 2.44844C20.399 2.44596 20.2415 2.44496 20.0835 2.44546Z" fill="black"/>
</g>
</svg>
